<mxfile host="65bd71144e">
    <diagram id="vTttjz_LRMIpep2z38rQ" name="Page-1">
        <mxGraphModel dx="978" dy="458" grid="1" gridSize="10" guides="1" tooltips="1" connect="1" arrows="1" fold="1" page="1" pageScale="1" pageWidth="827" pageHeight="1169" math="0" shadow="0">
            <root>
                <mxCell id="0"/>
                <mxCell id="1" parent="0"/>
                <mxCell id="5" value="" style="edgeStyle=orthogonalEdgeStyle;orthogonalLoop=1;jettySize=auto;html=1;" parent="1" source="2" target="4" edge="1">
                    <mxGeometry relative="1" as="geometry"/>
                </mxCell>
                <mxCell id="2" value="" style="whiteSpace=wrap;html=1;rounded=1;" parent="1" vertex="1">
                    <mxGeometry x="70" y="230" width="200" height="240" as="geometry"/>
                </mxCell>
                <mxCell id="4" value="" style="whiteSpace=wrap;html=1;direction=west;rounded=1;" parent="1" vertex="1">
                    <mxGeometry x="410" y="190" width="190" height="170" as="geometry"/>
                </mxCell>
                <mxCell id="7" value="" style="shape=image;verticalLabelPosition=bottom;labelBackgroundColor=#ffffff;verticalAlign=top;aspect=fixed;imageAspect=0;image=data:image/svg+xml,PHN2ZyB4bWxucz0iaHR0cDovL3d3dy53My5vcmcvMjAwMC9zdmciIHhtbG5zOnhsaW5rPSJodHRwOi8vd3d3LnczLm9yZy8xOTk5L3hsaW5rIiB2ZXJzaW9uPSIxLjEiIGlkPSJmODBhYzhlNC0yY2FhLTQ0MjMtOGEwNC1kMDMxNjI1YWU5ZDUiIHg9IjBweCIgeT0iMHB4IiB2aWV3Qm94PSIwIDAgMTk3LjA5OTk5MDg0NDcyNjU2IDE4NS41IiBzdHlsZT0iZW5hYmxlLWJhY2tncm91bmQ6bmV3IDAgMCAxOTcgMTg1LjU7IiB4bWw6c3BhY2U9InByZXNlcnZlIiB3aWR0aD0iMTk3LjA5OTk5MDg0NDcyNjU2IiBoZWlnaHQ9IjE4NS41Ij4KPHN0eWxlIHR5cGU9InRleHQvY3NzIj4KCS5zdDB7ZmlsbDojMzU0OTVFO30KCS5zdDF7ZmlsbDojNDFCODgzO30KPC9zdHlsZT4KPHBhdGggY2xhc3M9InN0MCIgZD0iTTMwLjIsNTMuOGMtMC4xLDAuOC0wLjMsMS42LTEuMSwxLjZjLTAuMy0wLjItMC43LTAuNC0xLjEtMC40Yy0wLjQsMC0wLjcsMC4zLTEuMSwwLjNjLTEuMiwwLTIuMS0wLjktMi4yLTIuMSYjMTA7JiM5O2MwLTAuNi0wLjQtMS4yLTAuNC0xLjljMC0wLjksMC4xLTEuNywwLjEtMi42YzAtMC40LDAtMC44LTAuMS0xLjJjMC4yLTEuMy0wLjMtMi43LDAuMy0zLjljLTAuNi0zLjItMC40LTctMC40LTEwLjImIzEwOyYjOTtjMC0xMC4yLDAuMS0yMC40LDAuMS0zMC41YzAuNy0xLDAuNi0yLjQsMi4yLTIuNGMwLjgsMC4xLDEuNywwLjIsMi41LDAuMWMwLjUsMS4yLDAuNywyLjYsMC42LDMuOWMwLDIuMy0wLjQsNC42LTAuMyw2LjkmIzEwOyYjOTtjLTAuMywwLjcsMC4xLDEuNCwwLjEsMi4yYzAsMS4zLTAuMSwyLjYtMC40LDMuOGMwLjQsMi4xLDAuNyw0LjIsMC44LDYuM2MwLjMsMC40LTAuMSw1LDAuMSw1LjljLTAuMSwwLjItMC4yLDAuNC0wLjIsMC42bDAuMiwwLjYmIzEwOyYjOTtjLTAuMSwxLjgtMC4xLDMuNS0wLjEsNS4zYzAsMS0wLjQsMi0wLjQsM2MwLDMuNSwwLjYsNywwLjYsMTAuNUMzMC4yLDUxLjEsMjkuNyw1Mi41LDMwLjIsNTMuOHogTTI4LDMzLjhjMC0wLjctMC4xLTEuNS0wLjMtMi4yVjMxJiMxMDsmIzk7YzAtMi43LTAuNC01LjQtMC40LTguMWMtMC4xLTAuMS0wLjEtMC4zLTAuMS0wLjRjMC0wLjcsMC43LTEuMiwwLjEtMS45bDAuMS0wLjFsMC4xLTAuNGwtMC41LTAuNGwwLjEtMS43YzAuMS0yLjctMC4zLTUuNS0wLjQtOC4yJiMxMDsmIzk7Yy0wLjQtMC43LTAuMS0xLjYtMC4xLTIuNWMwLTAuNS0wLjItMS4xLTAuNi0xLjRjLTAuNiwwLjQtMC41LDIuOC0wLjUsMy41YzAsMC42LDAsMS4yLTAuMiwxLjdjMC4yLDIuMiwwLjMsNC40LDAuMSw2LjUmIzEwOyYjOTtjMC4xLDAuMywwLjIsMC43LDAuMSwxLjFjMCw0LjYtMC40LDkuMy0wLjQsMTMuOWMwLDMuMSwwLDEzLjIsMSwxNS43bDAuNC0wLjFjMC4xLTAuNCwwLjgtMC43LDAuOC0xLjFjLTAuMS0wLjItMC4zLTAuMy0wLjUtMC40JiMxMDsmIzk7bDAuNi0wLjRjMC4yLTMuMiwwLjYtNi41LDAuNi05LjZMMjgsMzMuOHogTTI3LjcsNi4xbDAuMSwwLjZDMjcuOCw2LjUsMjgsNi4xLDI3LjcsNi4xTDI3LjcsNi4xeiBNNTcuMiw1MC4zaC0wLjMmIzEwOyYjOTtjLTAuNSwwLTAuNSwwLjgtMC45LDFjLTEuNSwxLjMtMy4xLDIuNC00LjgsMy4ybC0wLjQtMC4xYy0xLjQsMC0zLjUsMS4xLTUuNCwxLjFjLTAuOSwwLTEuNy0wLjItMi40LTAuNkw0Mi41LDU1JiMxMDsmIzk7Yy0wLjksMC0xLjcsMC4zLTIuNywwLjNjLTAuNCwwLTAuOCwwLTEuMi0wLjFjLTAuMS0wLjItMC4yLTAuNS0wLjItMC43YzAtMC42LDAuNC0xLDAuNC0xLjdjMC0wLjctMC4yLTEuNC0wLjUtMiYjMTA7JiM5O2MwLjEtMC45LTAuMy0yLjUsMC45LTIuOHM0LjMsMCw1LjYsMGMxLjksMC4xLDMuNy0wLjMsNS40LTEuMWMyLjEtMC4xLDQuNS00LjcsNC41LTYuNWMtMC4xLTEuNS0wLjUtMy0xLjEtNC41di0wLjEmIzEwOyYjOTtjMC0wLjktMS42LTEuMi0xLTIuNGMtMC40LTAuNC0wLjctMS41LTEuMy0xLjVjLTAuMiwwLTAuNCwwLjEtMC42LDAuM2MtMS4zLTAuNC0yLjItMS0zLjUtMWMtMC45LDAtMS0wLjctMi4yLTAuNiYjMTA7JiM5O2MtMSwwLjEtMiwwLjItMywwLjFjLTAuNiwwLTEuMS0wLjEtMS42LTAuMmMtMC4xLTAuOS0xLjEtMC42LTEuNy0wLjZjLTAuMi0wLjEtMC41LTAuMS0wLjctMC4yYzAuMi0wLjYsMC42LTEuMiwxLjEtMS41JiMxMDsmIzk7Yy0wLjQtMC42LTEuMS0xLjEtMS4xLTEuOGwwLjMtMC42Yy0wLjItMC4xLTAuMy0wLjQtMC40LTAuNmwwLjQtMC41YzAuNS0wLjMsMS4xLTAuMSwxLjYtMC4xYzAuMywwLDAuNi0wLjEsMC44LTAuMyYjMTA7JiM5O2MxLjMtMC4zLDIuOC0wLjMsNC0xLjJjMCwwLjEsMC4xLDAuMSwwLjEsMC4xYzAuNCwwLDAuNi0wLjUsMC45LTAuNGMzLjItMSw1LjYtMy41LDUuNi02LjljMC0wLjYtMC4xLTEuMS0wLjQtMS42di0wLjQmIzEwOyYjOTtjMC4xLTEuNi0xLjctMy42LTIuNy00LjhjLTAuOS0xLjEtMi44LTAuNS0zLjctMS43Yy0xLjQtMC40LTMuMy0wLjEtNC4xLTEuNmMtMC43LTAuNC0xLjYtMC40LTIuMy0wLjhjLTAuMy0wLjQsMC4xLTAuOSwwLjEtMS40JiMxMDsmIzk7QzM4LjEsMywzOCwyLjcsMzguMSwyLjNjMC0wLjcsMC40LTEuNCwwLjMtMi4yQzM4LjUsMCwzOC43LDAsMzksMGMwLjksMCwxLjIsMC45LDIuNCwwLjVMNDIsMC44YzEtMC4zLDItMC41LDIuOS0wLjYmIzEwOyYjOTtjMS4xLDAsMi4yLDAuNiwzLjIsMC44YzAsMC41LDAuNywwLjMsMSwwLjZjMS4xLDAuOCwyLjcsMS42LDMuNSwyLjhjMy43LDEuNSw1LDcuMiw1LDEwLjhjMCwwLjYtMC4xLDEuMy0wLjEsMS45JiMxMDsmIzk7YzAuNCwxLjgtMS4xLDMuMS0xLjQsNC44Yy0wLjcsMC45LTEsMi0xLDMuMWMwLDMsMyw0LjQsMy44LDcuM2MxLjEsMC44LDAuMiwyLjMsMS42LDMuNWMwLjYsMC44LDAuOSwxLjgsMC45LDIuOCYjMTA7JiM5O0M2MS41LDQyLjQsNTkuOSw0Ny43LDU3LjIsNTAuM0w1Ny4yLDUwLjN6IE00My40LDUxLjVjLTAuMS0wLjQtMC4xLTAuNywwLTEuMWMwLTAuMS0wLjEtMC4yLTAuMS0wLjJzLTAuNCwwLjQtMC42LDAuMSYjMTA7JiM5O2MtMC4zLDAuNC0wLjksMC4zLTEuMywwLjNjLTAuMywwLTAuNiwwLjEtMC44LDAuNGMtMC4xLDAuMy0wLjMsMC42LDAsMC45QzQwLDUyLjQsNDAuMSw1Myw0MCw1My42YzAuOC0wLjEsMS42LTAuMSwyLjQsMCYjMTA7JiM5O2MwLjUtMC4yLDEuNy0wLjgsMS43LTEuNEM0NCw1MS44LDQzLjcsNTEuNiw0My40LDUxLjVMNDMuNCw1MS41eiBNNDMsMi4ybC0wLjIsMC4xQzQzLjMsMyw0NCwzLjUsNDQuNSw0LjFsMC4yLTAuMiYjMTA7JiM5O0M0NC4yLDMuNCw0My45LDIuMiw0MywyLjJMNDMsMi4yeiBNNDguMSwyMy44bC0wLjIsMC41aDAuMWMwLjEsMCwwLjEtMC4xLDAuMS0wLjJTNDguMiwyNCw0OC4xLDIzLjhMNDguMSwyMy44eiBNNDguOCwyNy4zaC0wLjMmIzEwOyYjOTtsMC4xLDAuMkw0OC44LDI3LjNMNDguOCwyNy4zeiBNNTMuNSw3LjhjLTAuNi0xLjMtMC44LTMuMi0yLjQtMy42TDUxLDQuNmMwLjgsMS4xLDIuNCw1LjUsMi43LDUuOGwwLjEtMC41JiMxMDsmIzk7QzUzLjcsOS4yLDUzLjYsOC41LDUzLjUsNy44TDUzLjUsNy44eiBNNTMuMywxOC4zYy0wLjcsMC45LDAsMi40LTAuNCwzLjVjMC42LTAuMSwwLjgtMC45LDAuNi0xLjRjMC4yLTAuMywwLjItMC42LDAuMi0wLjkmIzEwOyYjOTtDNTMuNywxOS4xLDUzLjUsMTguNiw1My4zLDE4LjN6IE01My40LDI5LjFsLTAuMSwwLjFsLTAuMSwwLjRjMCwwLjEsMC4xLDAuNCwwLjMsMC40aDAuMWMwLjEtMC4xLDAuMS0wLjIsMC4xLTAuNCYjMTA7JiM5O0M1My42LDI5LjMsNTMuNiwyOSw1My40LDI5LjFMNTMuNCwyOS4xeiIvPgo8cGF0aCBjbGFzcz0ic3QwIiBkPSJNODQuNyw1My44Yy0wLjEsMC44LTAuMywxLjYtMS4xLDEuNmMtMC4zLTAuMi0wLjctMC40LTEuMS0wLjRjLTAuNCwwLTAuNywwLjMtMS4xLDAuM2MtMS4yLDAtMi4xLTAuOS0yLjItMi4xJiMxMDsmIzk7YzAtMC42LTAuNC0xLjItMC40LTEuOWMwLTAuOSwwLjEtMS43LDAuMS0yLjZjMC0wLjQsMC0wLjgtMC4xLTEuMmMwLjItMS4zLTAuMy0yLjcsMC4zLTMuOWMtMC42LTMuMi0wLjQtNy0wLjQtMTAuMiYjMTA7JiM5O2MwLTEwLjIsMC4xLTIwLjQsMC4xLTMwLjVjMC43LTEsMC42LTIuNCwyLjItMi40YzAuOCwwLjEsMS43LDAuMiwyLjUsMC4xYzAuNSwxLjIsMC43LDIuNiwwLjYsMy45YzAsMi4zLTAuNCw0LjYtMC4zLDYuOSYjMTA7JiM5O2MtMC4zLDAuNywwLjEsMS40LDAuMSwyLjJjMCwxLjMtMC4xLDIuNi0wLjQsMy44YzAuNCwyLjEsMC43LDQuMiwwLjgsNi4zYzAuMywwLjQtMC4xLDUsMC4xLDUuOWMtMC4xLDAuMi0wLjIsMC40LTAuMiwwLjZsMC4yLDAuNiYjMTA7JiM5O2MtMC4xLDEuOC0wLjEsMy41LTAuMSw1LjNjMCwxLTAuNCwyLTAuNCwzYzAsMy41LDAuNiw3LDAuNiwxMC41Qzg0LjcsNTEuMSw4NC4zLDUyLjUsODQuNyw1My44eiBNODIuNiwzMy44YzAtMC43LTAuMS0xLjUtMC4zLTIuMiYjMTA7JiM5O1YzMWMwLTIuNy0wLjQtNS40LTAuNC04LjFjLTAuMS0wLjEtMC4xLTAuMy0wLjEtMC40YzAtMC43LDAuNy0xLjIsMC4xLTEuOWwwLjEtMC4xbDAuMS0wLjRsLTAuNS0wLjRsMC4xLTEuNyYjMTA7JiM5O2MwLjEtMi43LTAuMy01LjUtMC40LTguMmMtMC40LTAuNy0wLjEtMS42LTAuMS0yLjVjMC0wLjUtMC4yLTEuMS0wLjYtMS40Yy0wLjYsMC40LTAuNSwyLjgtMC41LDMuNWMwLDAuNiwwLDEuMi0wLjIsMS43JiMxMDsmIzk7YzAuMiwyLjIsMC4zLDQuNCwwLjEsNi41YzAuMSwwLjMsMC4yLDAuNywwLjEsMS4xYzAsNC42LTAuNCw5LjMtMC40LDEzLjljMCwzLjEsMCwxMy4yLDEsMTUuN2wwLjQtMC4xYzAuMS0wLjQsMC44LTAuNywwLjgtMS4xJiMxMDsmIzk7Yy0wLjEtMC4yLTAuMy0wLjMtMC41LTAuNGwwLjYtMC40YzAuMi0zLjIsMC42LTYuNSwwLjYtOS42TDgyLjYsMzMuOHogTTgyLjMsNi4xbDAuMSwwLjZDODIuNCw2LjUsODIuNiw2LjEsODIuMyw2LjFMODIuMyw2LjF6JiMxMDsmIzk7IE0xMTEuNyw1MC4zaC0wLjJjLTAuNSwwLTAuNSwwLjgtMC45LDFjLTEuNSwxLjMtMy4xLDIuNC00LjgsMy4ybC0wLjQtMC4xYy0xLjUsMC0zLjUsMS4xLTUuNCwxLjFjLTAuOCwwLTEuNy0wLjItMi40LTAuNkw5Ny4xLDU1JiMxMDsmIzk7Yy0wLjksMC0xLjcsMC4zLTIuNywwLjNjLTAuNCwwLTAuOCwwLTEuMS0wLjFjLTAuMS0wLjItMC4yLTAuNS0wLjItMC43YzAtMC42LDAuNC0xLDAuNC0xLjdjMC0wLjctMC4yLTEuNC0wLjUtMiYjMTA7JiM5O2MwLjEtMC45LTAuMy0yLjUsMC45LTIuOGMxLjEtMC4zLDQuMywwLDUuNiwwYzEuOSwwLjEsMy43LTAuMyw1LjQtMS4xYzIuMS0wLjEsNC41LTQuNyw0LjUtNi41Yy0wLjEtMS41LTAuNS0zLTEuMS00LjV2LTAuMSYjMTA7JiM5O2MwLTAuOS0xLjctMS4yLTEtMi40Yy0wLjQtMC40LTAuNy0xLjUtMS4zLTEuNWMtMC4yLDAtMC40LDAuMS0wLjYsMC4zYy0xLjMtMC40LTIuMi0xLTMuNS0xYy0wLjksMC0xLTAuNy0yLjItMC42JiMxMDsmIzk7Yy0xLDAuMS0yLDAuMi0zLDAuMWMtMC42LDAtMS4xLTAuMS0xLjctMC4yYy0wLjEtMC45LTEuMS0wLjYtMS43LTAuNmMtMC4yLTAuMS0wLjUtMC4xLTAuNy0wLjJjMC4yLTAuNiwwLjYtMS4yLDEuMi0xLjUmIzEwOyYjOTtjLTAuNC0wLjYtMS4yLTEuMS0xLjItMS44bDAuMy0wLjZjLTAuMi0wLjItMC4zLTAuNC0wLjQtMC42bDAuNC0wLjVjMC41LTAuMywxLjEtMC4xLDEuNi0wLjFjMC4zLDAsMC42LTAuMSwwLjgtMC4zJiMxMDsmIzk7YzEuMy0wLjMsMi44LTAuMyw0LTEuMmMwLDAuMSwwLjEsMC4xLDAuMSwwLjFjMC40LDAsMC42LTAuNSwwLjktMC40YzMuMi0xLDUuNi0zLjUsNS42LTYuOWMwLTAuNi0wLjEtMS4xLTAuNC0xLjZ2LTAuNCYjMTA7JiM5O2MwLjEtMS42LTEuNy0zLjYtMi43LTQuOHMtMi44LTAuNS0zLjctMS43Qzk4LDYuNiw5Niw2LjksOTUuMiw1LjRjLTAuNy0wLjQtMS42LTAuNC0yLjMtMC44QzkyLjcsNC4xLDkzLDMuNyw5MywzLjImIzEwOyYjOTtjLTAuMi0wLjItMC4zLTAuNi0wLjMtMC45YzAtMC43LDAuNC0xLjQsMC4zLTIuMkM5My4yLDAsOTMuNCwwLDkzLjcsMGMwLjksMCwxLjIsMC45LDIuNCwwLjVsMC42LDAuM2MxLTAuMywyLTAuNSwzLTAuNiYjMTA7JiM5O2MxLjEsMCwyLjIsMC42LDMuMiwwLjhjMCwwLjUsMC43LDAuMywxLDAuNmMxLjEsMC44LDIuNywxLjYsMy41LDIuOGMzLjgsMS41LDUsNy4yLDUsMTAuOGMwLDAuNi0wLjEsMS4zLTAuMSwxLjkmIzEwOyYjOTtjMC40LDEuOC0xLjIsMy4xLTEuNCw0LjhjLTAuNywwLjktMSwyLTEsMy4xYzAsMywzLDQuNCwzLjcsNy4zYzEuMSwwLjgsMC4yLDIuMywxLjYsMy41YzAuNiwwLjgsMC45LDEuOCwwLjksMi44JiMxMDsmIzk7QzExNi4xLDQyLjQsMTE0LjUsNDcuNywxMTEuNyw1MC4zTDExMS43LDUwLjN6IE05Ny45LDUxLjZjLTAuMS0wLjQtMC4xLTAuNywwLTEuMWMwLTAuMS0wLjEtMC4yLTAuMS0wLjJzLTAuNCwwLjQtMC42LDAuMSYjMTA7JiM5O2MtMC4zLDAuNC0wLjksMC4zLTEuMywwLjNjLTAuMywwLTAuNiwwLjEtMC44LDAuNGMtMC4xLDAuMy0wLjMsMC42LDAsMC45Yy0wLjQsMC40LTAuNCwxLjEtMC40LDEuNmMwLjgtMC4xLDEuNi0wLjEsMi41LDAmIzEwOyYjOTtjMC41LTAuMiwxLjctMC44LDEuNy0xLjRDOTguNiw1MS45LDk4LjMsNTEuNiw5Ny45LDUxLjZ6IE05Ny42LDIuMmwtMC4yLDAuMWMwLjUsMC43LDEuMiwxLjIsMS43LDEuOUw5OS4zLDQmIzEwOyYjOTtDOTguOCwzLjQsOTguNSwyLjIsOTcuNiwyLjJMOTcuNiwyLjJ6IE0xMDIuNywyMy45bC0wLjEsMC40aDAuMWMwLjEsMCwwLjEtMC4xLDAuMS0wLjJTMTAyLjcsMjQsMTAyLjcsMjMuOUwxMDIuNywyMy45eiYjMTA7JiM5OyBNMTAzLjMsMjcuNEgxMDNsMC4xLDAuMkwxMDMuMywyNy40TDEwMy4zLDI3LjR6IE0xMDguMSw3LjhjLTAuNi0xLjMtMC44LTMuMi0yLjQtMy42bC0wLjEsMC40YzAuOCwxLjEsMi41LDUuNSwyLjcsNS44bDAuMS0wLjUmIzEwOyYjOTtDMTA4LjQsOS4yLDEwOC4yLDguNiwxMDguMSw3LjhMMTA4LjEsNy44eiBNMTA3LjksMTguM2MtMC43LDAuOSwwLDIuNC0wLjQsMy41YzAuNi0wLjEsMC44LTAuOSwwLjYtMS40YzAuMS0wLjMsMC4yLTAuNiwwLjItMC45JiMxMDsmIzk7QzEwOC4yLDE5LjEsMTA4LjEsMTguNiwxMDcuOSwxOC4zeiBNMTA4LDI5LjFsLTAuMSwwLjFsLTAuMSwwLjRjMCwwLjEsMC4xLDAuNCwwLjMsMC40aDAuMWMwLjEtMC4xLDAuMS0wLjIsMC4xLTAuNCYjMTA7JiM5O0MxMDguMiwyOS4zLDEwOC4yLDI5LDEwOCwyOS4xTDEwOCwyOS4xeiIvPgo8cGF0aCBjbGFzcz0ic3QwIiBkPSJNMTM5LjMsNTMuOGMtMC4xLDAuOC0wLjMsMS42LTEuMSwxLjZjLTAuMy0wLjItMC43LTAuNC0xLjEtMC40Yy0wLjQsMC0wLjcsMC4zLTEuMSwwLjNjLTEuMiwwLTIuMS0wLjktMi4yLTIuMSYjMTA7JiM5O2MwLTAuNi0wLjQtMS4yLTAuNC0xLjljMC0wLjksMC4xLTEuNywwLjEtMi42YzAtMC40LDAtMC44LTAuMS0xLjJjMC4yLTEuMy0wLjMtMi43LDAuMy0zLjljLTAuNi0zLjItMC40LTctMC40LTEwLjImIzEwOyYjOTtjMC0xMC4yLDAuMS0yMC40LDAuMS0zMC41YzAuNy0xLDAuNi0yLjQsMi4yLTIuNGMwLjgsMC4xLDEuNywwLjIsMi41LDAuMWMwLjUsMS4yLDAuNywyLjYsMC42LDMuOWMwLDIuMy0wLjQsNC42LTAuMyw2LjkmIzEwOyYjOTtjLTAuMywwLjcsMC4xLDEuNCwwLjEsMi4yYzAsMS4zLTAuMSwyLjYtMC40LDMuOGMwLjQsMi4xLDAuNyw0LjIsMC44LDYuM2MwLjMsMC40LTAuMSw1LDAuMSw1LjljLTAuMSwwLjItMC4yLDAuNC0wLjIsMC42bDAuMiwwLjYmIzEwOyYjOTtjLTAuMSwxLjgtMC4xLDMuNS0wLjEsNS4zYzAsMS0wLjQsMi0wLjQsM2MwLDMuNSwwLjYsNywwLjYsMTAuNUMxMzkuMyw1MS4xLDEzOC45LDUyLjUsMTM5LjMsNTMuOHogTTEzNy4yLDMzLjgmIzEwOyYjOTtjMC0wLjctMC4xLTEuNS0wLjMtMi4yVjMxYzAtMi43LTAuNC01LjQtMC40LTguMWMtMC4xLTAuMS0wLjEtMC4zLTAuMS0wLjRjMC0wLjcsMC43LTEuMiwwLjEtMS45bDAuMS0wLjFsMC4xLTAuNGwtMC41LTAuNGwwLjEtMS43JiMxMDsmIzk7YzAuMS0yLjctMC4zLTUuNS0wLjQtOC4yYy0wLjQtMC43LTAuMS0xLjYtMC4xLTIuNWMwLTAuNS0wLjItMS4xLTAuNi0xLjRjLTAuNiwwLjQtMC41LDIuOC0wLjUsMy41YzAsMC42LDAsMS4yLTAuMiwxLjcmIzEwOyYjOTtjMC4yLDIuMiwwLjMsNC40LDAuMSw2LjVjMC4xLDAuMywwLjIsMC43LDAuMSwxLjFjMCw0LjYtMC40LDkuMy0wLjQsMTMuOWMwLDMuMSwwLDEzLjIsMSwxNS43bDAuNC0wLjFjMC4xLTAuNCwwLjgtMC43LDAuOC0xLjEmIzEwOyYjOTtjLTAuMS0wLjItMC4zLTAuMy0wLjUtMC40bDAuNi0wLjRjMC4yLTMuMiwwLjYtNi41LDAuNi05LjZWMzMuOHogTTEzNi45LDYuMWwwLjEsMC42QzEzNyw2LjUsMTM3LjIsNi4xLDEzNi45LDYuMUwxMzYuOSw2LjF6JiMxMDsmIzk7IE0xNjYuNCw1MC40aC0wLjJjLTAuNSwwLTAuNSwwLjgtMC45LDFjLTEuNSwxLjMtMy4xLDIuNC00LjgsMy4ybC0wLjQtMC4xYy0xLjQsMC0zLjUsMS4xLTUuNCwxLjFjLTAuOSwwLTEuNy0wLjItMi41LTAuNmwtMC40LTAuMSYjMTA7JiM5O2MtMC45LDAtMS43LDAuMy0yLjcsMC4zYy0wLjQsMC0wLjgsMC0xLjEtMC4xYy0wLjEtMC4yLTAuMi0wLjUtMC4yLTAuN2MwLTAuNiwwLjQtMSwwLjQtMS43YzAtMC43LTAuMi0xLjQtMC41LTImIzEwOyYjOTtjMC4xLTAuOS0wLjMtMi41LDAuOS0yLjhzNC4zLDAsNS42LDBjMS45LDAuMSwzLjctMC4zLDUuNC0xLjFjMi4xLTAuMSw0LjUtNC43LDQuNS02LjVjLTAuMS0xLjUtMC41LTMtMS4xLTQuNXYtMC4xJiMxMDsmIzk7YzAtMC45LTEuNi0xLjItMS0yLjRjLTAuNC0wLjQtMC43LTEuNS0xLjMtMS41Yy0wLjIsMC0wLjQsMC4xLTAuNiwwLjNjLTEuMy0wLjQtMi4yLTEtMy41LTFjLTAuOSwwLTEtMC43LTIuMi0wLjYmIzEwOyYjOTtjLTEsMC4xLTIsMC4yLTMsMC4xYy0wLjYsMC0xLjEtMC4xLTEuNi0wLjJjLTAuMS0wLjktMS4xLTAuNi0xLjctMC42Yy0wLjItMC4xLTAuNS0wLjEtMC43LTAuMmMwLjItMC42LDAuNi0xLjIsMS4xLTEuNSYjMTA7JiM5O2MtMC40LTAuNi0xLjEtMS4xLTEuMS0xLjhsMC4zLTAuNmMtMC4yLTAuMS0wLjMtMC40LTAuNC0wLjZsMC40LTAuNWMwLjUtMC4zLDEuMS0wLjEsMS42LTAuMWMwLjMsMCwwLjYtMC4xLDAuOC0wLjMmIzEwOyYjOTtjMS4zLTAuMywyLjgtMC4zLDQtMS4yYzAsMC4xLDAuMSwwLjEsMC4xLDAuMWMwLjQsMCwwLjYtMC41LDAuOS0wLjRjMy4yLTEsNS42LTMuNSw1LjYtNi45YzAtMC42LTAuMS0xLjEtMC40LTEuNnYtMC40JiMxMDsmIzk7YzAuMS0xLjYtMS43LTMuNi0yLjctNC44cy0yLjgtMC41LTMuNy0xLjdjLTEuNC0wLjQtMy4zLTAuMS00LjEtMS42Yy0wLjctMC40LTEuNi0wLjQtMi4zLTAuOGMtMC4zLTAuNCwwLjEtMC45LDAuMS0xLjQmIzEwOyYjOTtjLTAuMi0wLjItMC4zLTAuNi0wLjMtMC45YzAtMC43LDAuNC0xLjQsMC4zLTIuMmMwLjItMC4yLDAuNC0wLjIsMC42LTAuMmMwLjksMCwxLjIsMC45LDIuNCwwLjVsMC42LDAuM2MxLTAuMywyLTAuNSwzLTAuNiYjMTA7JiM5O2MxLjEsMCwyLjIsMC42LDMuMiwwLjhjMCwwLjUsMC43LDAuMywxLDAuNmMxLjEsMC44LDIuNywxLjYsMy41LDIuOGMzLjcsMS41LDUsNy4yLDUsMTAuOGMwLDAuNi0wLjEsMS4zLTAuMSwxLjkmIzEwOyYjOTtjMC40LDEuOC0xLjEsMy4xLTEuNCw0LjhjLTAuNywwLjktMSwyLTEsMy4xYzAsMywzLDQuNCwzLjcsNy4zYzEuMSwwLjgsMC4yLDIuMywxLjYsMy41YzAuNiwwLjgsMC45LDEuOCwwLjksMi44JiMxMDsmIzk7QzE3MC43LDQyLjQsMTY5LjEsNDcuNywxNjYuNCw1MC40TDE2Ni40LDUwLjR6IE0xNTIuNSw1MS41Yy0wLjEtMC40LTAuMS0wLjcsMC0xLjFjMC0wLjEtMC4xLTAuMi0wLjEtMC4ycy0wLjQsMC40LTAuNiwwLjEmIzEwOyYjOTtjLTAuMywwLjQtMC45LDAuMy0xLjMsMC4zYy0wLjMsMC0wLjYsMC4xLTAuOCwwLjRjLTAuMSwwLjMtMC4zLDAuNiwwLDAuOWMtMC40LDAuNC0wLjQsMS4xLTAuNCwxLjZjMC44LTAuMSwxLjYtMC4xLDIuNSwwJiMxMDsmIzk7YzAuNS0wLjIsMS43LTAuOCwxLjctMS40QzE1My4yLDUxLjgsMTUyLjksNTEuNiwxNTIuNSw1MS41TDE1Mi41LDUxLjV6IE0xNTIuMiwyLjJsLTAuMywwLjFjMC41LDAuNywxLjIsMS4yLDEuNywxLjlsMC4yLTAuMiYjMTA7JiM5O0MxNTMuNCwzLjQsMTUzLjEsMi4yLDE1Mi4yLDIuMkwxNTIuMiwyLjJ6IE0xNTcuMywyMy45bC0wLjEsMC40aDAuMWMwLjEsMCwwLjEtMC4xLDAuMS0wLjJTMTU3LjMsMjQsMTU3LjMsMjMuOUwxNTcuMywyMy45eiYjMTA7JiM5OyBNMTU3LjksMjcuM2gtMC4zbDAuMSwwLjJMMTU3LjksMjcuM0wxNTcuOSwyNy4zeiBNMTYyLjcsNy44Yy0wLjYtMS4zLTAuOC0zLjItMi40LTMuNmwtMC4xLDAuNGMwLjgsMS4xLDIuNSw1LjUsMi43LDUuOGwwLjEtMC41JiMxMDsmIzk7QzE2Mi45LDkuMiwxNjIuOCw4LjUsMTYyLjcsNy44TDE2Mi43LDcuOHogTTE2Mi40LDE4LjNjLTAuNywwLjksMCwyLjQtMC40LDMuNWMwLjYtMC4xLDAuOC0wLjksMC42LTEuNGMwLjItMC4zLDAuMi0wLjYsMC4yLTAuOSYjMTA7JiM5O0MxNjIuOCwxOS4xLDE2Mi43LDE4LjYsMTYyLjQsMTguM3ogTTE2Mi42LDI5LjFsLTAuMSwwLjFsLTAuMSwwLjRjMCwwLjEsMC4xLDAuNCwwLjMsMC40aDAuMWMwLjEtMC4xLDAuMS0wLjIsMC4xLTAuNCYjMTA7JiM5O0MxNjIuOCwyOS4zLDE2Mi44LDI5LDE2Mi42LDI5LjFMMTYyLjYsMjkuMXoiLz4KPHBhdGggY2xhc3M9InN0MSIgZD0iTTAsNzQuNmMwLTAuMiwwLjItMC40LDAuNC0wLjRjMCwwLDAsMCwwLDBoMS4xbDMuMSwxMC4xYzAuMiwwLjYsMSwzLjQsMSwzLjRsMS0zLjRsMy05LjgmIzEwOyYjOTtjMC4xLTAuMSwwLjEtMC40LDAuNC0wLjRoMS4yVjk0YzAsMC40LDAsMC40LTEuNiwwLjRsMC4xLTguOGMwLTEsMC4yLTUuOCwwLjItNy42Yy0wLjcsMi4yLTIsNi43LTIuMSw3LjFMNi4xLDkwJiMxMDsmIzk7YzAsMC4xLTAuMiwwLjItMC4zLDAuM0g1bC0xLjYtNS4yYy0wLjEtMC4zLTEuNC00LjgtMi4xLTcuMWMwLjEsMS40LDAuMiw2LjQsMC4zLDcuM1Y5NGMwLDAuNCwwLDAuNC0xLjYsMC40TDAsNzQuNnoiLz4KPHBhdGggY2xhc3M9InN0MSIgZD0iTTI4LjIsNzkuNGMtMC4yLTAuNC0wLjMtMC43LTAuMi0xLjFjMC0wLjIsNC42LTEuMiw1LjItMS4yYzAuMiwwLDAuMywwLDAuNSwwLjFMMzMuMiw5M2gyLjUmIzEwOyYjOTtjMC41LDAsMS4xLDAsMS42LTAuMWMwLDAuOSwwLDEuNi0wLjIsMS42SDI3YzAtMC4zLDAtMC45LDAtMS4yczMuNi0wLjMsNC42LTAuM2wwLjQtMTQuMkMzMS40LDc4LjgsMjguMiw3OS40LDI4LjIsNzkuNHoiLz4KPHBhdGggY2xhc3M9InN0MSIgZD0iTTQ3LjcsNzcuMWMzLjgsMCw1LjEsMi43LDUuMSw4LjRjMCw2LTEuNCw5LjQtNS4zLDkuNHMtNS4xLTMtNS4xLTlDNDIuMyw4MC4yLDQzLjksNzcuMSw0Ny43LDc3LjF6IE00Ny41LDkzLjQmIzEwOyYjOTtjMi43LDAsMy42LTIuOCwzLjYtOGMwLTQuNi0wLjgtNi45LTMuMy02LjljLTIuOCwwLTMuNywyLjgtMy43LDcuNUM0NCw5MS4yLDQ1LjEsOTMuNCw0Ny41LDkzLjRMNDcuNSw5My40eiIvPgo8cGF0aCBjbGFzcz0ic3QxIiBkPSJNNTkuMyw5MmMwLjYtMC4xLDEuMiwwLjQsMS4zLDEuMWMwLDAuMSwwLDAuMSwwLDAuMmMwLDAuNy0wLjUsMS4zLTEuMSwxLjNjMCwwLTAuMSwwLTAuMSwwJiMxMDsmIzk7Yy0wLjksMC0xLjItMC41LTEuMi0xLjNDNTguMSw5Mi42LDU4LjYsOTIuMSw1OS4zLDkyQzU5LjMsOTIsNTkuMyw5Miw1OS4zLDkyeiIvPgo8cGF0aCBjbGFzcz0ic3QxIiBkPSJNNzUuOSw5MGMwLDQuNS0yLjYsNy4zLTYuNSw3LjNjLTIuMiwwLTMuMi0wLjctMy4yLTEuM2MwLTAuNCwwLjEtMC44LDAuMi0xLjJjMC45LDAuNywyLDEuMSwzLjEsMSYjMTA7JiM5O2MyLjksMCw0LjctMi41LDQuNy01LjhjMC0yLjgtMi4zLTMuMi00LjctMy4zdi0xLjFjMi41LTEuNCw0LTMuMSw0LTQuOGMwLTAuOS0wLjQtMi4yLTIuNi0yLjJjLTEuNi0wLjEtMy4xLDAuMy00LjUsMS4xJiMxMDsmIzk7Yy0wLjEtMC40LTAuMi0wLjgtMC4yLTEuMmMwLTAuNiwxLjktMS41LDUtMS41czQsMS42LDQsMy40YzAsMi4zLTEuNyw0LTMuNCw1LjJDNzMuOSw4NS45LDc1LjksODcsNzUuOSw5MHoiLz4KPHBhdGggY2xhc3M9InN0MSIgZD0iTTkyLDk0LjRWNzQuNmMwLTAuMiwwLjItMC40LDAuNC0wLjRjMCwwLDAsMCwwLDBoNi45YzAsMS4zLDAsMS40LTAuMywxLjRoLTUuNHY3aDUuMWMwLDEuMiwwLDEuNS0wLjQsMS41aC00LjcmIzEwOyYjOTt2OS45YzAsMCwwLDAuNC0wLjQsMC40TDkyLDk0LjR6Ii8+CjxwYXRoIGNsYXNzPSJzdDEiIGQ9Ik0xMDcuNSw3OS42YzMsMCw0LjUsMS43LDQuNSw3LjZjMCw1LjItMS43LDcuNy00LjYsNy43cy00LjYtMS4xLTQuNi03LjZDMTAyLjcsODEuOSwxMDQuNSw3OS42LDEwNy41LDc5LjZ6JiMxMDsmIzk7IE0xMDcuMyw5My41YzEuOCwwLDMtMS44LDMtNi40YzAtNS0xLTYuMS0yLjgtNi4xcy0zLjEsMS41LTMuMSw2LjRTMTA1LjQsOTMuNSwxMDcuMyw5My41TDEwNy4zLDkzLjV6Ii8+CjxwYXRoIGNsYXNzPSJzdDEiIGQ9Ik0xMTcuNCw4MC44YzEuMS0wLjgsMi41LTEuMywzLjktMS4zYzEuNCwwLDIuMSwwLjQsMi4xLDAuOWMwLDAuNC0wLjEsMC43LTAuMiwxLjFjLTAuNS0wLjMtMS0wLjUtMS42LTAuNCYjMTA7JiM5O2MtMC45LDAtMS44LDAuMy0yLjUsMC45djEyYzAsMC40LDAsMC40LTEuNiwwLjRMMTE3LjQsODAuOHoiLz4KPHBhdGggY2xhc3M9InN0MSIgZD0iTTEyOC4zLDgwLjVjMS4zLTAuNiwyLjgtMSw0LjMtMWMxLTAuMSwyLjEsMC4zLDIuNywxLjFjMS4xLTAuNywyLjMtMS4xLDMuNS0xLjFjMy4zLDAsMy40LDEuNCwzLjQsNS41djkmIzEwOyYjOTtjMCwwLjQsMC4xLDAuNC0xLjYsMC40di05LjZjMC0zLDAtMy44LTEuOS0zLjhjLTAuOSwwLTEuOSwwLjMtMi42LDAuOHYxMi40YzAsMC4xLTAuMSwwLjEtMC4zLDAuMmMwLDAsMCwwLTAuMSwwaC0xLjJ2LTkuNiYjMTA7JiM5O2MwLTIuOCwwLTMuOS0yLTMuOWMtMC45LDAtMS44LDAuMi0yLjcsMC43Vjk0YzAsMC40LDAuMSwwLjQtMS42LDAuNEwxMjguMyw4MC41eiIvPgo8cGF0aCBjbGFzcz0ic3QxIiBkPSJNMTU2LjksOTMuOWMtMS40LDAuNi0yLjksMS00LjQsMC45Yy0zLjcsMC00LjItMS42LTQuMi01LjV2LTljMC0wLjQsMC0wLjQsMS42LTAuNHY5LjZjMCwyLjksMC40LDMuOSwyLjYsMy45JiMxMDsmIzk7YzEsMCwyLTAuMiwyLjktMC43VjgwLjRjMC0wLjQtMC4xLTAuNCwxLjYtMC40TDE1Ni45LDkzLjl6Ii8+CjxwYXRoIGNsYXNzPSJzdDEiIGQ9Ik0xNjQuNyw5NGMwLDAuNCwwLDAuNC0xLjYsMC40Vjc0YzAtMC44LDAuMy0wLjgsMS42LTAuOFY5NHoiLz4KPHBhdGggY2xhc3M9InN0MSIgZD0iTTE3MC40LDgwLjhjMC0wLjMsMC4xLTAuNSwwLjItMC42YzEuNi0wLjUsMy4zLTAuOCw1LTAuN2MxLjgsMCwzLDAuOSwzLDMuNXYxLjljMCw1LjEtMC4xLDktMC4xLDkmIzEwOyYjOTtjLTEuMiwwLjctMi42LDEtMy45LDFjLTIuMSwwLTQuMS0wLjItNC4xLTQuNGMwLTQuMSwyLjEtNC43LDQuMy00LjdjMC44LDAsMS42LDAuMSwyLjQsMC40di0yLjdjMC0xLjktMC45LTIuMy0yLTIuMyYjMTA7JiM5O2MtMS41LDAtMywwLjItNC40LDAuN0MxNzAuNSw4MS42LDE3MC40LDgxLjIsMTcwLjQsODAuOHogTTE3Nyw4Ny4yYy0wLjYtMC4yLTEuMi0wLjMtMS45LTAuM2MtMS42LDAtMy4xLDAuNC0zLjEsMy41JiMxMDsmIzk7YzAsMywxLjIsMywyLjcsM2MwLjgsMCwxLjUtMC4yLDIuMi0wLjZDMTc2LjksOTIuOSwxNzcsODkuNCwxNzcsODcuMnoiLz4KPHBhdGggY2xhc3M9InN0MSIgZD0iTTE4NC40LDgwLjhjMS4xLTAuOCwyLjUtMS4zLDMuOS0xLjNjMS40LDAsMi4xLDAuNCwyLjEsMC45YzAsMC40LTAuMSwwLjctMC4yLDEuMWMtMC41LTAuMy0xLTAuNS0xLjYtMC40JiMxMDsmIzk7Yy0wLjksMC0xLjgsMC4zLTIuNSwwLjl2MTJjMCwwLjQsMCwwLjQtMS42LDAuNEwxODQuNCw4MC44eiIvPgo8cGF0aCBjbGFzcz0ic3QxIiBkPSJNMTk2LjIsNzMuNmMwLjcsMCwwLjksMC40LDAuOSwxLjNzLTAuMywxLjQtMSwxLjRzLTAuOS0wLjQtMC45LTEuM1MxOTUuNSw3My42LDE5Ni4yLDczLjZ6IE0xOTYuOSw5NCYjMTA7JiM5O2MwLDAuNCwwLDAuNC0xLjYsMC40VjgwLjhjMC0wLjgsMC40LTAuOCwxLjYtMC44Vjk0eiIvPgo8cG9seWdvbiBjbGFzcz0ic3QxIiBwb2ludHM9IjEyNi40LDEwNi4xIDk5LjQsMTUzLjcgNzIuMywxMDYuMSA1My44LDEwNi4xIDk5LjQsMTg1LjUgMTQ0LjksMTA2LjEgIi8+Cjxwb2x5Z29uIGNsYXNzPSJzdDAiIHBvaW50cz0iMTEwLDEwNi4xIDk5LjMsMTI0LjUgODguNywxMDYuMSA3Mi4zLDEwNi4xIDk5LjQsMTUzLjcgMTI2LjQsMTA2LjEgIi8+Cjwvc3ZnPg==;rounded=1;" parent="1" vertex="1">
                    <mxGeometry x="340" width="127" height="119.91" as="geometry"/>
                </mxCell>
                <mxCell id="8" value="Formulari.vue" style="text;html=1;strokeColor=none;fillColor=none;align=center;verticalAlign=middle;whiteSpace=wrap;rounded=1;" parent="1" vertex="1">
                    <mxGeometry x="462" y="190" width="86" height="40" as="geometry"/>
                </mxCell>
                <mxCell id="56" value="&lt;font style=&quot;font-size: 12px&quot;&gt;Envia&lt;/font&gt;" style="html=1;shadow=0;dashed=0;shape=mxgraph.bootstrap.rrect;rSize=5;strokeColor=none;strokeWidth=1;fillColor=#0085FC;fontColor=#FFFFFF;whiteSpace=wrap;align=center;verticalAlign=middle;spacingLeft=0;fontStyle=0;fontSize=16;spacing=5;rounded=1;" parent="1" vertex="1">
                    <mxGeometry x="90" y="430" width="70" height="30" as="geometry"/>
                </mxCell>
                <mxCell id="58" value="&lt;span id=&quot;yui_3_17_2_1_1634281487232_52&quot; style=&quot;box-sizing: border-box ; font-weight: bolder ; color: rgb(55 , 71 , 79) ; font-family: &amp;#34;montserrat&amp;#34; , &amp;#34;arial&amp;#34; , &amp;#34;helvetica&amp;#34; ; font-size: 14px ; background-color: rgb(248 , 248 , 248)&quot;&gt;Nom&lt;/span&gt;" style="html=1;shadow=0;dashed=0;shape=mxgraph.bootstrap.rrect;rSize=5;strokeColor=none;strokeWidth=1;fillColor=#E0F0D6;fontColor=#59B958;whiteSpace=wrap;align=left;verticalAlign=middle;spacingLeft=10;rounded=1;" parent="1" vertex="1">
                    <mxGeometry x="80" y="250" width="150" height="30" as="geometry"/>
                </mxCell>
                <mxCell id="59" value="&lt;span id=&quot;yui_3_17_2_1_1634281487232_49&quot; style=&quot;box-sizing: border-box ; font-weight: bolder ; color: rgb(55 , 71 , 79) ; font-family: &amp;#34;montserrat&amp;#34; , &amp;#34;arial&amp;#34; , &amp;#34;helvetica&amp;#34; ; font-size: 14px ; background-color: rgb(248 , 248 , 248)&quot;&gt;Mòbil&lt;/span&gt;" style="html=1;shadow=0;dashed=0;shape=mxgraph.bootstrap.rrect;rSize=5;strokeColor=none;strokeWidth=1;fillColor=#E0F0D6;fontColor=#59B958;whiteSpace=wrap;align=left;verticalAlign=middle;spacingLeft=10;rounded=1;" parent="1" vertex="1">
                    <mxGeometry x="80" y="288" width="150" height="30" as="geometry"/>
                </mxCell>
                <mxCell id="60" value="&lt;span id=&quot;yui_3_17_2_1_1634281487232_39&quot; style=&quot;box-sizing: border-box ; font-weight: bolder ; color: rgb(55 , 71 , 79) ; font-family: &amp;#34;montserrat&amp;#34; , &amp;#34;arial&amp;#34; , &amp;#34;helvetica&amp;#34; ; font-size: 14px ; background-color: rgb(248 , 248 , 248)&quot;&gt;Codi Postal&lt;/span&gt;" style="html=1;shadow=0;dashed=0;shape=mxgraph.bootstrap.rrect;rSize=5;strokeColor=none;strokeWidth=1;fillColor=#E0F0D6;fontColor=#59B958;whiteSpace=wrap;align=left;verticalAlign=middle;spacingLeft=10;rounded=1;" parent="1" vertex="1">
                    <mxGeometry x="80" y="329.90999999999997" width="150" height="30" as="geometry"/>
                </mxCell>
                <mxCell id="61" value="&lt;span id=&quot;yui_3_17_2_1_1634281487232_59&quot; style=&quot;box-sizing: border-box ; font-weight: bolder ; color: rgb(55 , 71 , 79) ; font-family: &amp;#34;montserrat&amp;#34; , &amp;#34;arial&amp;#34; , &amp;#34;helvetica&amp;#34; ; font-size: 14px ; background-color: rgb(248 , 248 , 248)&quot;&gt;E-mai&lt;/span&gt;" style="html=1;shadow=0;dashed=0;shape=mxgraph.bootstrap.rrect;rSize=5;strokeColor=none;strokeWidth=1;fillColor=#E0F0D6;fontColor=#59B958;whiteSpace=wrap;align=left;verticalAlign=middle;spacingLeft=10;rounded=1;" parent="1" vertex="1">
                    <mxGeometry x="80" y="370" width="150" height="30" as="geometry"/>
                </mxCell>
            </root>
        </mxGraphModel>
    </diagram>
</mxfile>